<svg width="392" height="118" viewBox="0 0 392 118" fill="none" xmlns="http://www.w3.org/2000/svg">
<g filter="url(#filter0_b_224_174)">
<path d="M1 21C1 21 77.9528 36.9872 128 41C180.552 45.2137 207.34 45.5368 263 41C313.426 36.8898 391 21 391 21V109H1V21Z" fill="url(#paint0_linear_224_174)" fill-opacity="0.26"/>
<path d="M1 21L1.05085 20.7552L0.75 20.6927V21V109V109.25H1H391H391.25V109V21V20.6936L390.95 20.7551L391 21C390.95 20.7551 390.95 20.7551 390.949 20.7553L390.946 20.7558L390.936 20.758L390.894 20.7666L390.726 20.8007C390.578 20.8309 390.357 20.8757 390.067 20.9344C389.487 21.0518 388.629 21.2244 387.519 21.4456C385.3 21.888 382.074 22.5247 378.044 23.3015C369.985 24.8552 358.714 26.9696 345.867 29.2124C320.172 33.6984 288.181 38.6967 262.98 40.7508C207.334 45.2865 180.56 44.9635 128.02 40.7508C103.009 38.7454 71.2684 33.7471 45.7757 29.249C33.0305 27.0001 21.849 24.8766 13.8538 23.3153C9.85621 22.5347 6.65528 21.8946 4.45384 21.4497C3.35311 21.2273 2.50227 21.0536 1.92665 20.9356C1.63884 20.8766 1.41984 20.8315 1.27282 20.8011L1.10666 20.7668L1.06482 20.7581L1.05433 20.7559L1.05171 20.7554C1.05114 20.7553 1.05085 20.7552 1 21Z" stroke="#7582F4" stroke-opacity="0.5" stroke-width="0.5"/>
</g>
<g filter="url(#filter1_d_224_174)">
<path d="M175 9H217C279 9 257 109 325 109H67C135 109 113 9 175 9Z" fill="url(#paint1_linear_224_174)" shape-rendering="crispEdges"/>
<path d="M67 109V109.25H325V109V108.75C308.074 108.75 296.765 102.532 288.342 93.2074C279.905 83.8681 274.357 71.4073 268.98 58.9012C268.73 58.3199 268.48 57.7385 268.231 57.1573C263.12 45.2523 258.048 33.4366 250.662 24.4661C242.901 15.0401 232.583 8.75 217 8.75H175C159.417 8.75 149.099 15.0401 141.338 24.4661C133.953 33.4366 128.88 45.2523 123.769 57.1572C123.52 57.7384 123.27 58.3199 123.02 58.9012C117.643 71.4073 112.095 83.8681 103.658 93.2074C95.235 102.532 83.9265 108.75 67 108.75V109Z" stroke="#7582F4" stroke-opacity="0.5" stroke-width="0.5" shape-rendering="crispEdges"/>
</g>
<g filter="url(#filter2_f_224_174)">
<circle cx="196" cy="59" r="32" fill="url(#paint2_linear_224_174)" fill-opacity="0.4"/>
</g>
<g filter="url(#filter3_ddi_224_174)">
<circle cx="196" cy="59" r="29" fill="url(#paint3_linear_224_174)" shape-rendering="crispEdges"/>
<circle cx="196" cy="59" r="28" stroke="url(#paint4_linear_224_174)" stroke-width="2" shape-rendering="crispEdges"/>
</g>
<mask id="mask0_224_174" style="mask-type:alpha" maskUnits="userSpaceOnUse" x="167" y="30" width="58" height="58">
<circle cx="196" cy="59" r="28" fill="url(#paint5_linear_224_174)" stroke="url(#paint6_linear_224_174)" stroke-width="2"/>
</mask>
<g mask="url(#mask0_224_174)">
<g filter="url(#filter4_f_224_174)">
<mask id="path-9-inside-1_224_174" fill="white">
<path d="M225 59C225 75.0163 212.016 88 196 88C179.984 88 167 75.0163 167 59C167 42.9837 179.984 30 196 30C212.016 30 225 42.9837 225 59ZM169.9 59C169.9 73.4146 181.585 85.1 196 85.1C210.415 85.1 222.1 73.4146 222.1 59C222.1 44.5854 210.415 32.9 196 32.9C181.585 32.9 169.9 44.5854 169.9 59Z"/>
</mask>
<path d="M225 59C225 75.0163 212.016 88 196 88C179.984 88 167 75.0163 167 59C167 42.9837 179.984 30 196 30C212.016 30 225 42.9837 225 59ZM169.9 59C169.9 73.4146 181.585 85.1 196 85.1C210.415 85.1 222.1 73.4146 222.1 59C222.1 44.5854 210.415 32.9 196 32.9C181.585 32.9 169.9 44.5854 169.9 59Z" fill="url(#paint7_linear_224_174)"/>
<path d="M225 59C225 75.0163 212.016 88 196 88C179.984 88 167 75.0163 167 59C167 42.9837 179.984 30 196 30C212.016 30 225 42.9837 225 59ZM169.9 59C169.9 73.4146 181.585 85.1 196 85.1C210.415 85.1 222.1 73.4146 222.1 59C222.1 44.5854 210.415 32.9 196 32.9C181.585 32.9 169.9 44.5854 169.9 59Z" stroke="url(#paint8_linear_224_174)" stroke-width="4" mask="url(#path-9-inside-1_224_174)"/>
</g>
</g>
<defs>
<filter id="filter0_b_224_174" x="-49.5" y="-29.6145" width="491" height="189.115" filterUnits="userSpaceOnUse" color-interpolation-filters="sRGB">
<feFlood flood-opacity="0" result="BackgroundImageFix"/>
<feGaussianBlur in="BackgroundImageFix" stdDeviation="25"/>
<feComposite in2="SourceAlpha" operator="in" result="effect1_backgroundBlur_224_174"/>
<feBlend mode="normal" in="SourceGraphic" in2="effect1_backgroundBlur_224_174" result="shape"/>
</filter>
<filter id="filter1_d_224_174" x="63" y="8.5" width="266" height="109" filterUnits="userSpaceOnUse" color-interpolation-filters="sRGB">
<feFlood flood-opacity="0" result="BackgroundImageFix"/>
<feColorMatrix in="SourceAlpha" type="matrix" values="0 0 0 0 0 0 0 0 0 0 0 0 0 0 0 0 0 0 127 0" result="hardAlpha"/>
<feOffset dy="4"/>
<feGaussianBlur stdDeviation="2"/>
<feComposite in2="hardAlpha" operator="out"/>
<feColorMatrix type="matrix" values="0 0 0 0 0.458824 0 0 0 0 0.509804 0 0 0 0 0.956863 0 0 0 1 0"/>
<feBlend mode="normal" in2="BackgroundImageFix" result="effect1_dropShadow_224_174"/>
<feBlend mode="normal" in="SourceGraphic" in2="effect1_dropShadow_224_174" result="shape"/>
</filter>
<filter id="filter2_f_224_174" x="163" y="26" width="66" height="66" filterUnits="userSpaceOnUse" color-interpolation-filters="sRGB">
<feFlood flood-opacity="0" result="BackgroundImageFix"/>
<feBlend mode="normal" in="SourceGraphic" in2="BackgroundImageFix" result="shape"/>
<feGaussianBlur stdDeviation="0.5" result="effect1_foregroundBlur_224_174"/>
</filter>
<filter id="filter3_ddi_224_174" x="137" y="0" width="118" height="118" filterUnits="userSpaceOnUse" color-interpolation-filters="sRGB">
<feFlood flood-opacity="0" result="BackgroundImageFix"/>
<feColorMatrix in="SourceAlpha" type="matrix" values="0 0 0 0 0 0 0 0 0 0 0 0 0 0 0 0 0 0 127 0" result="hardAlpha"/>
<feOffset dx="10" dy="10"/>
<feGaussianBlur stdDeviation="10"/>
<feComposite in2="hardAlpha" operator="out"/>
<feColorMatrix type="matrix" values="0 0 0 0 0.0509804 0 0 0 0 0.0666667 0 0 0 0 0.266667 0 0 0 0.5 0"/>
<feBlend mode="normal" in2="BackgroundImageFix" result="effect1_dropShadow_224_174"/>
<feColorMatrix in="SourceAlpha" type="matrix" values="0 0 0 0 0 0 0 0 0 0 0 0 0 0 0 0 0 0 127 0" result="hardAlpha"/>
<feOffset dx="-10" dy="-10"/>
<feGaussianBlur stdDeviation="10"/>
<feComposite in2="hardAlpha" operator="out"/>
<feColorMatrix type="matrix" values="0 0 0 0 1 0 0 0 0 1 0 0 0 0 1 0 0 0 0.5 0"/>
<feBlend mode="overlay" in2="effect1_dropShadow_224_174" result="effect2_dropShadow_224_174"/>
<feBlend mode="normal" in="SourceGraphic" in2="effect2_dropShadow_224_174" result="shape"/>
<feColorMatrix in="SourceAlpha" type="matrix" values="0 0 0 0 0 0 0 0 0 0 0 0 0 0 0 0 0 0 127 0" result="hardAlpha"/>
<feOffset dx="1" dy="1"/>
<feGaussianBlur stdDeviation="0.75"/>
<feComposite in2="hardAlpha" operator="arithmetic" k2="-1" k3="1"/>
<feColorMatrix type="matrix" values="0 0 0 0 1 0 0 0 0 1 0 0 0 0 1 0 0 0 1 0"/>
<feBlend mode="normal" in2="shape" result="effect3_innerShadow_224_174"/>
</filter>
<filter id="filter4_f_224_174" x="165" y="28" width="62" height="62" filterUnits="userSpaceOnUse" color-interpolation-filters="sRGB">
<feFlood flood-opacity="0" result="BackgroundImageFix"/>
<feBlend mode="normal" in="SourceGraphic" in2="BackgroundImageFix" result="shape"/>
<feGaussianBlur stdDeviation="1" result="effect1_foregroundBlur_224_174"/>
</filter>
<linearGradient id="paint0_linear_224_174" x1="196" y1="21" x2="196" y2="109" gradientUnits="userSpaceOnUse">
<stop stop-color="#3A3A6A"/>
<stop offset="1" stop-color="#25244C" stop-opacity="0"/>
<stop offset="1" stop-color="#25244C"/>
</linearGradient>
<linearGradient id="paint1_linear_224_174" x1="196" y1="9" x2="196" y2="109" gradientUnits="userSpaceOnUse">
<stop stop-color="#262C51"/>
<stop offset="1" stop-color="#3E3F74"/>
</linearGradient>
<linearGradient id="paint2_linear_224_174" x1="171.5" y1="38.5" x2="216" y2="81" gradientUnits="userSpaceOnUse">
<stop/>
<stop offset="1" stop-color="white" stop-opacity="0.7"/>
</linearGradient>
<linearGradient id="paint3_linear_224_174" x1="173.797" y1="40.4219" x2="214.125" y2="78.9375" gradientUnits="userSpaceOnUse">
<stop stop-color="#F5F5F9"/>
<stop offset="1" stop-color="#DADFE7" stop-opacity="0.7"/>
</linearGradient>
<linearGradient id="paint4_linear_224_174" x1="196" y1="30" x2="196" y2="88" gradientUnits="userSpaceOnUse">
<stop stop-color="white"/>
<stop offset="1" stop-color="#AEAEAE" stop-opacity="0"/>
</linearGradient>
<linearGradient id="paint5_linear_224_174" x1="173.797" y1="40.4219" x2="214.125" y2="78.9375" gradientUnits="userSpaceOnUse">
<stop stop-color="#F5F5F9"/>
<stop offset="1" stop-color="#DADFE7" stop-opacity="0.7"/>
</linearGradient>
<linearGradient id="paint6_linear_224_174" x1="196" y1="30" x2="196" y2="88" gradientUnits="userSpaceOnUse">
<stop stop-color="white"/>
<stop offset="1" stop-color="#AEAEAE" stop-opacity="0"/>
</linearGradient>
<linearGradient id="paint7_linear_224_174" x1="173.797" y1="40.4219" x2="214.125" y2="78.9375" gradientUnits="userSpaceOnUse">
<stop stop-color="white" stop-opacity="0"/>
<stop offset="1" stop-color="#BBBFC7"/>
</linearGradient>
<linearGradient id="paint8_linear_224_174" x1="196" y1="30" x2="196" y2="88" gradientUnits="userSpaceOnUse">
<stop stop-color="white"/>
<stop offset="1" stop-color="#AEAEAE" stop-opacity="0"/>
</linearGradient>
</defs>
</svg>
 